# xmcd CD database file generated by OrangeCD 6.4
#
# Track frame offsets:
#	150
#	17103
#	45771
#	89523
#	108785
#	127285
#	142781
#	176175
#	194768
#	219253
#	239381
#	258830
#	278886
#	316435
#	332887
#
# Disc length: 4707 seconds
#
# Revision: 0
# Processed by: cddbd v1.5.2PL0 Copyright (c) Steve Scherf et al.
# Submitted via: OrangeCD 6.4
#
DISCID=da12610f
DTITLE=The Rolling Stones - The REAL Alternate Album - Tattoo You
DYEAR=2010
DGENRE=
TTITLE0=Start Me Up
TTITLE1=Hang Fire
TTITLE2=Slave
TTITLE3=Little T&A
TTITLE4=Black Limousine
TTITLE5=Neighbors
TTITLE6=Worried About You
TTITLE7=Tops
TTITLE8=Heaven
TTITLE9=No Use In Crying
TTITLE10=Waiting On A Friend
TTITLE11=Start Me Up
TTITLE12=Slave
TTITLE13=Black Limousine
TTITLE14=No Use In Crying
EXTD=
EXTT0=
EXTT1=
EXTT2=
EXTT3=
EXTT4=
EXTT5=
EXTT6=
EXTT7=
EXTT8=
EXTT9=
EXTT10=
EXTT11=
EXTT12=
EXTT13=
EXTT14=
PLAYORDER=
